<svg id="Layer_1" data-name="Layer 1" xmlns="http://www.w3.org/2000/svg" viewBox="0 0 150.82 54.49"><defs><style>.cls-1{fill:#0061a6;}.cls-2{fill:#fff;}.cls-3{fill:#c82222;}.cls-4{fill:#222;}</style></defs><g id="Group_58" data-name="Group 58"><g id="Group_57" data-name="Group 57"><rect id="Rectangle_46" data-name="Rectangle 46" class="cls-1" x="126.72" y="37.66" width="3.6" height="11"/><rect id="Rectangle_47" data-name="Rectangle 47" class="cls-2" x="130.32" y="37.66" width="3.6" height="11"/><path id="Path_49" data-name="Path 49" class="cls-3" d="M137.52,45.66l-3.6,3v-11h3.6Z" transform="translate(0 0)"/></g><path id="Path_50" data-name="Path 50" class="cls-4" d="M2.13,16.91A2.29,2.29,0,0,1,0,14.78a1.63,1.63,0,0,1,.66-1.25C7.65,8.09,22.5,0,31.18,0,34,0,36.32,2.06,36.32,4.34a3.54,3.54,0,0,1-.22,1.25C30.66,18.75,25,37.43,23.46,48.83,34.93,39.56,46.26,25.37,55.59,5.3a.74.74,0,0,1,.66-.52c1.4,0,3.75,4.34,3.75,6.91,0,.52-.07,1-2.35,5C46,36.91,28.31,54.49,20.59,54.49c-2.57,0-5.15-1.84-5.15-5.88,0-6.47,5.66-28.24,11.55-43.09-7.72,2-14.64,4.85-23.76,11A2.12,2.12,0,0,1,2.13,16.91Z" transform="translate(0 0)"/><path id="Path_51" data-name="Path 51" class="cls-4" d="M61.33,39.05c0-3.31,2.21-4.64,4.12-4.64,2.35,0,4,1.47,4,4.64a11,11,0,0,1-.51,3,9,9,0,0,0,1.47.07c3.16,0,6.25-1.4,9.63-4,.95-.73,1.1-.81,1.25-.81.51,0,.74,1,.74,2a3.46,3.46,0,0,1-.67,2.35A18.83,18.83,0,0,1,69.71,46.1a9.84,9.84,0,0,1-2.64-.37c-2.87,4.34-8,8-13,8s-7.43-2.94-7.43-6.54c0-7.5,8.24-13.09,13.24-13.09.81,0,1.32.51,1.32,1.54s-.59,1.84-2.06,2.5c-2.35,1.1-5.07,3.75-5.07,6.91a3,3,0,0,0,2.68,3.23h.19c2.8,0,4.85-2.06,6.32-4.63A6.5,6.5,0,0,1,61.33,39.05Z" transform="translate(0 0)"/><path id="Path_52" data-name="Path 52" class="cls-4" d="M102.29,37.21c-.74,0-9.34,7.79-17.58,10.59,1-3.68,4.2-9.56,4.2-11.4,0-1.48-2.5-2.06-3.9-2.06a3.2,3.2,0,0,0-2.8,1.4,56,56,0,0,0-3.31,6.62c-1,2.13-2.72,5.8-2.72,7.94s1,3.23,2.87,3.23c5,0,13.6-4.92,23.24-11.84a2.21,2.21,0,0,0,1.17-2.35C103.46,38.68,103,37.21,102.29,37.21Z" transform="translate(0 0)"/><path id="Path_53" data-name="Path 53" class="cls-4" d="M59.51,34.13s5.48-.5,6.4.3.29,3.89.29,3.89l-6.82-.38a10.23,10.23,0,0,1-.88-1.59A23.28,23.28,0,0,1,59.51,34.13Z" transform="translate(0 0)"/><circle id="Ellipse_6" data-name="Ellipse 6" class="cls-4" cx="89.2" cy="22.08" r="4.46"/><path id="Path_54" data-name="Path 54" class="cls-4" d="M128.49,21.54a3,3,0,0,0,.84,2.28,45.34,45.34,0,0,0,10,6.31,2.28,2.28,0,0,0,.81.15c.72,0,1.34-.38,1.34-.86a1.09,1.09,0,0,0-.59-.85A84.07,84.07,0,0,1,130.52,19a.87.87,0,0,0-.62-.34C129.15,18.64,128.49,20.07,128.49,21.54Z" transform="translate(0 0)"/><path id="Path_55" data-name="Path 55" class="cls-4" d="M149.94,47.66c-.5,0-2.21,1.26-3.51,1.72s-3.45.69-3.94-2.34a14.88,14.88,0,0,1,.68-5.81,5.8,5.8,0,0,0,.64-2.84,5.84,5.84,0,0,0-2.37-3.13c-3.84-2.66-7.15-4.25-12.2-1-3.68,2.37-18.86,11.92-25.33,14.12a97.15,97.15,0,0,1,5.3-11.61c6.17-8,18.09-27.95,18.09-32.36,0-1.54-.89-3.75-2.28-3.75C123,.66,115.9,11,107.59,26.25c-3.9,7.21-11,21.62-11,24,0,2,.81,3.23,2.87,3.23,3.54,0,14-5.7,23.17-11.48-1.38,2.32-2.11,5.43-1.63,7.45.75,3.15,2.72,4,6,4,5,0,11.16-6.18,11.84-6.77a14,14,0,0,0,.73,4.29,3.45,3.45,0,0,0,2.76,2.38h0c2.44.45,6.63-1.2,7.64-2.08a2.68,2.68,0,0,0,.75-2.2C150.79,48.47,150.59,47.66,149.94,47.66Zm-14.1-3.76c-1.62,1.76-5.24,4.49-6.84,4.49a2.06,2.06,0,0,1-2-2.14c0-.06,0-.12,0-.18.2-3.09,2.71-5.83,3.76-6.59a13.54,13.54,0,0,1,1.61-1.11,3.85,3.85,0,0,1,2.94-.17c.89.3,2.25,1.78,2,3a5,5,0,0,1-1.49,2.73Z" transform="translate(0 0)"/></g></svg>